# xmcd
#
# Track frame offsets: 
#        150
#        2472
#        22680
#        42432
#        58347
#        78737
#        99995
#        122255
#        141892
#        157510
#        173362
#        194970
#        210877
#
# Disc length: 3158 seconds
#
# Revision: 3
# Processed by: cddbd v1.5.1PL2 Copyright (c) Steve Scherf et al.
# Submitted via: ExactAudioCopy v0.95a5
#
DISCID=950c540d
DTITLE=光良 - 第一次
DYEAR=1900
DGENRE=Pop
TTITLE0=INTRO
TTITLE1=单恋
TTITLE2=第一次
TTITLE3=Stop Now
TTITLE4=我爱你,你在哪
TTITLE5=如果你还爱我
TTITLE6=朋友首日封
TTITLE7=回到一个人
TTITLE8=电梯
TTITLE9=我想去个地方
TTITLE10=你好吗
TTITLE11=ENDING
TTITLE12=B
EXTD=ID3G:  13
EXTT0=
EXTT1=
EXTT2=
EXTT3=
EXTT4=
EXTT5=
EXTT6=
EXTT7=
EXTT8=
EXTT9=
EXTT10=
EXTT11=
EXTT12=
PLAYORDER=
